<?xml version="1.0" encoding="UTF-8"?>
<svg id="Layer_1" data-name="Layer 1" xmlns="http://www.w3.org/2000/svg" xmlns:xlink="http://www.w3.org/1999/xlink" viewBox="0 0 200 200">
  <defs>
    <style>
      .cls-1 {
        fill: #003749;
      }

      .cls-2 {
        fill: url(#Nueva_muestra_de_degradado_4);
      }

      .cls-3 {
        fill: #ecc383;
      }
    </style>
    <linearGradient id="Nueva_muestra_de_degradado_4" data-name="Nueva muestra de degradado 4" x1="57.36" y1="62.36" x2="156.72" y2="62.36" gradientUnits="userSpaceOnUse">
      <stop offset="0" stop-color="#8d6c49"/>
      <stop offset="1" stop-color="#ebc181"/>
    </linearGradient>
  </defs>
  <g>
    <path class="cls-1" d="M156.72,35.22c5.46,7.25,9.15,15.36,11.27,24.15,9.23,38.3-14.21,76.36-52.64,85-31.27,7.03-61.73-7.68-76.62-34.49-6.82-12.27-9.63-25.49-8.49-39.44,2.57-31.36,25.19-55.69,53.51-62.46,7.02-1.68,14.14-2.12,21.32-1.75.67.03,1.34.05,1.97.34-.31,3.77-.87,7.51-1.72,11.19-1.25,5.43-2.84,10.74-5.35,15.75-15.06.18-26.84,6.63-35.36,18.92-4.88,7.04-7.31,14.94-7.13,23.57-.33,2.78.01,5.53.6,8.21,3.17,14.54,11.54,24.96,25.11,31.09,3.32,1.5,6.78,2.72,10.5,2.81.51.12,1,.31,1.52.35,7.23.65,14.31-.03,21-2.98,15.13-6.68,23.88-18.29,26.16-34.65.51-3.66.58-7.43-.33-11.11.45-.85.89-1.71,1.37-2.55,4.53-7.96,8.17-16.32,11.08-25,.78-2.32,1.24-4.73,2.23-6.98Z"/>
    <path class="cls-2" d="M156.72,35.22c-.99,2.25-1.45,4.66-2.23,6.98-2.91,8.68-6.55,17.04-11.08,25-.48.84-.91,1.7-1.37,2.55-.42.61-.88,1.19-1.27,1.82-10.2,16.44-23.23,30.19-39.13,41.22-2.62,1.82-5.3,3.56-7.95,5.34-3.73-.09-7.19-1.31-10.5-2.81-13.57-6.13-21.94-16.55-25.11-31.09-.59-2.69-.92-5.44-.6-8.21.49-.18.99-.33,1.45-.56,12.84-6.12,23.53-14.88,31.99-26.3,3.6-4.86,6.78-9.99,9.04-15.64,2.51-5,4.1-10.32,5.35-15.75.85-3.69,1.41-7.42,1.72-11.19,4.36.04,8.56,1.08,12.7,2.31,14.76,4.4,26.77,12.81,36.14,25.01.31.41.56.87.83,1.31Z"/>
  </g>
  <g>
    <path class="cls-3" d="M40.19,168.69c.08.08.17.14.27.18.1.04.21.07.33.07.23,0,.43-.08.6-.25s.25-.36.25-.6c0-.12-.02-.23-.07-.33-.04-.1-.1-.19-.18-.27-.08-.08-.17-.14-.27-.18-.1-.04-.21-.07-.33-.07s-.23.02-.33.07c-.1.04-.19.11-.27.18s-.14.17-.18.27c-.04.1-.07.21-.07.33s.02.23.07.33c.04.1.11.19.18.27Z"/>
    <path class="cls-3" d="M37.7,168.69c.08.08.17.14.27.18.1.04.21.07.33.07s.23-.02.33-.07c.1-.04.19-.1.27-.18.08-.08.14-.17.18-.27.04-.1.07-.21.07-.33s-.02-.23-.07-.33c-.04-.1-.11-.19-.18-.27s-.17-.14-.27-.18c-.1-.04-.21-.07-.33-.07s-.23.02-.33.07c-.1.04-.19.11-.27.18s-.14.17-.18.27c-.04.1-.07.21-.07.33s.02.23.07.33c.04.1.11.19.18.27Z"/>
    <path class="cls-3" d="M35.34,177.96c.35.35.76.63,1.23.83.47.2.98.3,1.52.3h4.08c.38,0,.73-.07,1.06-.22.33-.14.62-.34.87-.59s.44-.54.58-.87c.14-.33.21-.69.21-1.07v-5.8h-1.67v5.8c0,.15-.03.29-.08.42-.06.13-.13.24-.22.34-.09.1-.21.17-.33.23-.13.06-.27.08-.41.08h-4.08c-.31,0-.6-.06-.87-.17-.27-.11-.5-.27-.7-.47-.2-.2-.36-.43-.47-.7-.11-.27-.17-.55-.17-.86v-3.11h-1.67v3.11c0,.53.1,1.04.3,1.51.2.47.48.88.83,1.23Z"/>
    <rect class="cls-3" x="46.73" y="167.24" width="1.67" height="11.85"/>
    <path class="cls-3" d="M52.06,181.2c.24-.24.43-.48.59-.72.16-.24.28-.48.38-.7.23-.53.35-1.07.35-1.61v-7.61h-1.67v7.68c0,.33-.09.66-.25.99-.07.14-.16.29-.26.44s-.24.3-.41.45c-.16.15-.36.3-.58.44-.22.14-.48.28-.78.4l.64,1.54c.43-.18.81-.38,1.14-.61.32-.22.6-.45.84-.69Z"/>
    <path class="cls-3" d="M58.86,182.34c.1.04.21.07.33.07s.23-.02.33-.07c.1-.04.19-.1.27-.18.08-.08.14-.17.18-.27.04-.1.07-.21.07-.33s-.02-.23-.07-.33c-.04-.1-.11-.19-.18-.27s-.17-.14-.27-.18c-.1-.04-.21-.07-.33-.07s-.23.02-.33.07c-.1.04-.19.11-.27.18s-.14.17-.18.27c-.04.1-.07.21-.07.33s.02.23.07.33c.04.1.11.19.18.27.08.08.17.14.27.18Z"/>
    <path class="cls-3" d="M61.36,182.34c.1.04.21.07.33.07.24,0,.44-.08.6-.25.17-.16.25-.36.25-.6,0-.12-.02-.23-.07-.33-.04-.1-.1-.19-.18-.27s-.17-.14-.27-.18-.21-.07-.33-.07-.23.02-.33.07c-.1.04-.19.11-.27.18-.08.08-.14.17-.19.27-.04.1-.07.21-.07.33s.02.23.07.33c.04.1.11.19.19.27.08.08.17.14.27.18Z"/>
    <path class="cls-3" d="M76.88,179.09h.78c.38,0,.73-.07,1.07-.22.33-.14.63-.34.87-.59s.44-.54.59-.87c.14-.33.22-.69.22-1.06v-9.12h-1.67v9.12c0,.15-.03.28-.08.41-.06.13-.13.24-.23.34-.1.1-.21.17-.34.23-.13.06-.27.08-.42.08h-1.73v-6.87h-1.67v6.87h-2.15v-6.87h-1.67v6.87h-2.13v-6.87h-1.67v6.87h-4.07v-6.87h-1.67v6.87h-2.9c-.15,0-.28-.03-.41-.08-.13-.06-.24-.13-.34-.23s-.17-.21-.23-.34c-.06-.13-.08-.27-.08-.41v-9.12h-1.67v9.12c0,.38.07.73.22,1.06.14.33.34.62.59.87.25.25.54.44.87.59.33.14.69.22,1.06.22h18.89Z"/>
    <rect class="cls-3" x="82.25" y="167.24" width="1.67" height="11.85"/>
    <path class="cls-3" d="M94.49,180.96c-.08-.08-.17-.14-.27-.18-.1-.04-.21-.07-.33-.07s-.23.02-.33.07c-.1.04-.19.11-.27.18s-.14.17-.18.27c-.04.1-.07.21-.07.33s.02.23.07.33c.04.1.11.19.18.27.08.08.17.14.27.18.1.04.21.07.33.07s.23-.02.33-.07c.1-.04.19-.1.27-.18.08-.08.14-.17.18-.27.04-.1.07-.21.07-.33s-.02-.23-.07-.33c-.04-.1-.11-.19-.18-.27Z"/>
    <path class="cls-3" d="M96.05,182.34c.1.04.21.07.33.07.24,0,.44-.08.6-.25.17-.16.25-.36.25-.6,0-.12-.02-.23-.07-.33-.04-.1-.1-.19-.18-.27s-.17-.14-.27-.18-.21-.07-.33-.07-.23.02-.33.07c-.1.04-.19.11-.27.18-.08.08-.14.17-.19.27-.04.1-.07.21-.07.33s.02.23.07.33c.04.1.11.19.19.27.08.08.17.14.27.18Z"/>
    <path class="cls-3" d="M105.93,171.34c-.36-.3-.77-.51-1.24-.62-.46-.12-.93-.18-1.41-.18-.33,0-.66.03-1.01.09s-.67.13-.99.22c-.31.09-.6.18-.86.28-.26.1-.47.18-.63.26l.71,1.49c.13-.06.3-.13.51-.21.21-.08.44-.15.68-.22.25-.07.51-.12.78-.17.27-.05.54-.07.8-.07s.54.04.8.11.5.19.7.37c.2.17.37.41.49.7.13.3.19.67.19,1.13v1.87c0,.14-.03.27-.08.4-.06.13-.13.24-.23.33-.1.09-.22.17-.35.22-.13.06-.27.08-.42.08h-7.13v-6.87h-1.67v6.87h-3.81v-6.87h-1.67v7.74c0,.32-.09.64-.25.96-.07.13-.16.28-.26.42-.11.15-.24.3-.4.44-.16.15-.35.3-.58.44-.22.14-.48.27-.78.4l.64,1.54c.58-.24,1.06-.51,1.44-.81.39-.3.7-.6.94-.91.24-.31.42-.61.55-.9.12-.29.21-.56.26-.79h12.71c.38,0,.73-.07,1.07-.21.34-.14.63-.33.88-.58.25-.25.45-.53.59-.86.14-.33.22-.68.22-1.05v-1.87c0-.79-.11-1.44-.33-1.96-.22-.51-.51-.92-.88-1.22Z"/>
    <path class="cls-3" d="M102.99,182.32c.11.04.22.07.33.07s.23-.02.33-.07c.1-.04.19-.11.27-.18.08-.08.14-.17.18-.27.04-.1.07-.21.07-.33,0-.24-.08-.43-.25-.6s-.36-.25-.6-.25-.44.08-.61.25c-.16.16-.25.36-.25.6,0,.12.02.23.07.33.04.1.1.19.18.27.08.08.17.14.27.18Z"/>
    <path class="cls-3" d="M111.2,165.52h-1.25s-.09-.02-.14-.06-.08-.09-.11-.16c-.03-.07-.05-.14-.07-.22s-.03-.17-.03-.25c0-.13.05-.26.14-.37.09-.11.24-.17.44-.18h.7v-.84h-.71c-.25,0-.47.05-.64.13-.18.08-.32.18-.43.31-.11.13-.19.27-.24.44-.05.16-.07.33-.07.51,0,.23.05.47.14.7h-.43v.84h2.71v-.84Z"/>
    <path class="cls-3" d="M112.96,168.94c.12,0,.23-.02.33-.07.1-.04.19-.1.27-.18.08-.08.14-.17.18-.27.04-.1.07-.21.07-.33s-.02-.23-.07-.33c-.04-.1-.11-.19-.18-.27s-.17-.14-.27-.18c-.1-.04-.21-.07-.33-.07s-.23.02-.33.07c-.1.04-.19.11-.27.18-.08.08-.14.17-.18.27-.04.1-.07.21-.07.33,0,.24.08.43.25.6.16.16.36.25.6.25Z"/>
    <path class="cls-3" d="M114.85,168.69c.08.08.17.14.27.18.1.04.21.07.33.07.24,0,.44-.08.6-.25.17-.16.25-.36.25-.6,0-.12-.02-.23-.07-.33-.04-.1-.1-.19-.18-.27s-.17-.14-.27-.18-.21-.07-.33-.07-.23.02-.33.07c-.1.04-.19.11-.27.18-.08.08-.14.17-.19.27-.04.1-.07.21-.07.33s.02.23.07.33c.04.1.11.19.19.27Z"/>
    <path class="cls-3" d="M118.04,179.09c.38,0,.73-.07,1.07-.22.33-.14.63-.34.87-.59s.44-.54.59-.87c.14-.33.22-.69.22-1.06v-9.12h-1.67v9.12c0,.15-.03.28-.08.41-.06.13-.13.24-.23.34-.1.1-.21.17-.34.23-.13.06-.27.08-.42.08h-1.74v-6.87h-1.67v6.87h-2.91c-.15,0-.28-.03-.41-.08-.13-.06-.24-.13-.34-.23s-.17-.21-.23-.34c-.06-.13-.08-.27-.08-.41v-9.12h-1.67v9.12c0,.38.07.73.22,1.06.14.33.34.62.59.87s.54.44.87.59c.33.14.69.22,1.07.22h6.32Z"/>
    <path class="cls-3" d="M146.36,168.33s-.08-.09-.11-.16c-.03-.07-.05-.14-.07-.22s-.03-.17-.03-.25c0-.13.05-.26.14-.37.09-.11.24-.17.44-.18h.7v-.84h-.72c-.25,0-.47.05-.65.13-.18.08-.32.18-.43.31-.11.13-.19.27-.24.44-.05.16-.08.33-.08.51,0,.23.05.47.14.7h-.43v.84h2.71v-.84h-1.25s-.09-.02-.14-.06Z"/>
    <path class="cls-3" d="M145.67,176.35c0,.15-.03.29-.08.42-.06.13-.13.24-.23.34s-.21.17-.34.23c-.13.06-.27.08-.42.08h-2.73v-6.87h-1.67v6.87h-2.13v-6.87h-1.67v6.87h-2.13v-6.87h-1.67v7.99c0,.36-.08.68-.23.96-.16.27-.36.5-.61.68-.25.18-.54.32-.87.41-.33.09-.66.14-.99.14s-.67-.05-1-.14c-.33-.09-.62-.23-.87-.41-.25-.18-.46-.41-.61-.68-.16-.27-.23-.59-.23-.96v-6.43h-1.67v6.43c0,.65.12,1.21.37,1.69.25.48.58.88.99,1.2.41.32.88.56,1.4.72.53.16,1.06.24,1.62.24.5,0,1-.07,1.49-.21.49-.14.93-.35,1.33-.62.4-.28.73-.62,1-1.03s.44-.89.52-1.44h10.38c.38,0,.73-.07,1.06-.22.33-.14.62-.34.88-.59.25-.25.45-.54.59-.87.14-.33.22-.69.22-1.07v-5.8h-1.67v5.8Z"/>
    <rect class="cls-3" x="149.6" y="167.24" width="1.67" height="11.85"/>
    <path class="cls-3" d="M159.7,181.27c.35-.35.62-.75.82-1.22.2-.47.3-.97.3-1.5v-4.09c0-.35-.05-.68-.14-1.01-.09-.33-.22-.64-.39-.92s-.37-.55-.61-.79c-.24-.24-.5-.45-.78-.62-.28-.17-.59-.31-.92-.4-.33-.1-.67-.15-1.03-.15-.53,0-1.03.1-1.5.31-.47.21-.88.49-1.22.84-.35.35-.62.77-.82,1.25-.2.48-.3.99-.3,1.54v1.88c0,.38.07.73.22,1.06.14.33.34.61.59.86s.53.44.86.58c.33.14.68.21,1.05.21h3.27c-.06.24-.15.46-.29.66-.13.2-.29.37-.48.52-.18.15-.39.26-.63.34-.23.08-.47.12-.73.12h-2.62v1.66h2.62c.53,0,1.03-.1,1.5-.3.47-.2.88-.48,1.22-.82ZM155.82,177.42c-.14,0-.27-.03-.4-.08-.13-.06-.24-.13-.33-.22-.09-.09-.17-.2-.22-.33-.06-.13-.08-.26-.08-.4v-1.88c0-.32.06-.61.17-.89.11-.28.27-.52.47-.72.2-.21.43-.37.69-.48.26-.12.55-.18.85-.18s.58.06.85.18c.27.12.5.28.7.48.2.2.36.44.47.71.11.27.17.55.17.85v2.97h-3.33Z"/>
    <path class="cls-3" d="M163.66,181.89c.32-.22.6-.45.84-.69s.43-.48.59-.72c.16-.24.28-.48.38-.7.23-.53.35-1.07.35-1.61v-7.61h-1.67v7.68c0,.33-.09.66-.25.99-.07.14-.16.29-.26.44s-.24.3-.41.45c-.16.15-.36.3-.58.44-.22.14-.48.28-.78.4l.64,1.54c.43-.18.81-.38,1.14-.61Z"/>
    <path class="cls-1" d="M42.84,196.81c-.07-.82-.12-1.32-.14-1.47-.05-.52-.19-.94-.41-1.26-.29-.44-.71-.72-1.27-.83.45-.15.82-.37,1.12-.66.57-.55.85-1.28.85-2.18,0-1.18-.47-2.05-1.4-2.63-.54-.34-1.3-.51-2.27-.51h-5.28v11.55h1.52v-5h3.04c.87,0,1.49.12,1.85.35.52.34.81,1.13.88,2.38.05,1.01.1,1.61.16,1.8.06.21.13.37.2.47h1.75l-.15-.16c-.21-.23-.36-.85-.45-1.83ZM40,192.46c-.37.08-.88.11-1.55.11h-2.88v-3.99h3.28c.39,0,.74.02,1.03.07.44.07.78.22,1.04.47.36.34.54.82.54,1.41,0,.51-.12.92-.35,1.24-.26.36-.63.58-1.11.68Z"/>
    <path class="cls-1" d="M51.92,197.26v-4.18c0-.55,0-.87-.02-.97-.08-.47-.25-.84-.52-1.1-.56-.55-1.43-.83-2.61-.83s-2.01.27-2.61.81c-.58.52-.88,1.2-.89,2.06h1.34c.05-.51.18-.88.38-1.11.34-.4.9-.6,1.68-.6,1.25,0,1.88.49,1.88,1.46,0,.26-.06.47-.17.63-.17.24-.6.4-1.29.48-.86.11-1.33.17-1.39.17-.48.08-.87.18-1.18.3-1.05.42-1.57,1.18-1.57,2.28,0,.77.27,1.37.8,1.81.46.38,1.09.57,1.88.57,1.24,0,2.25-.45,3.03-1.35,0,.33.08.6.22.79.22.3.54.45.98.45.32,0,.64-.06.97-.17v-1.07c-.13.06-.25.09-.37.09-.34,0-.51-.18-.51-.53ZM50.57,195.71c0,.31-.02.53-.06.68-.09.33-.32.64-.7.93-.52.39-1.13.59-1.81.59-.53,0-.93-.12-1.2-.36-.3-.26-.45-.6-.45-1,0-.52.23-.89.7-1.12.31-.15.87-.28,1.67-.37.56-.07.94-.12,1.15-.17.27-.06.5-.16.7-.3v1.11Z"/>
    <path class="cls-1" d="M62.36,194.91c-.18.61-.38,1.4-.59,2.37-.22-1.08-.41-1.88-.55-2.4l-1.2-4.45h-1.52l-1.03,3.97c-.15.6-.37,1.56-.66,2.88-.25-1.04-.5-1.99-.75-2.84l-1.16-4.01h-1.52l2.68,8.38h1.49l1.2-4.59c.16-.63.33-1.32.49-2.07.16.79.33,1.48.49,2.09l1.25,4.57h1.47l2.67-8.38h-1.44l-1.3,4.48Z"/>
    <path class="cls-1" d="M72.84,197.26v-4.18c0-.55,0-.87-.02-.97-.08-.47-.25-.84-.52-1.1-.56-.55-1.43-.83-2.61-.83s-2.01.27-2.61.81c-.58.52-.88,1.2-.89,2.06h1.34c.05-.51.18-.88.38-1.11.34-.4.9-.6,1.68-.6,1.25,0,1.88.49,1.88,1.46,0,.26-.06.47-.17.63-.17.24-.6.4-1.29.48-.86.11-1.33.17-1.39.17-.48.08-.87.18-1.18.3-1.05.42-1.57,1.18-1.57,2.28,0,.77.27,1.37.8,1.81.46.38,1.09.57,1.88.57,1.24,0,2.25-.45,3.03-1.35,0,.33.08.6.22.79.22.3.54.45.98.45.32,0,.64-.06.97-.17v-1.07c-.13.06-.25.09-.37.09-.34,0-.51-.18-.51-.53ZM71.49,195.71c0,.31-.02.53-.06.68-.09.33-.32.64-.7.93-.52.39-1.13.59-1.81.59-.53,0-.93-.12-1.2-.36-.3-.26-.45-.6-.45-1,0-.52.23-.89.7-1.12.31-.15.87-.28,1.67-.37.56-.07.94-.12,1.15-.17.27-.06.5-.16.7-.3v1.11Z"/>
    <path class="cls-1" d="M82.53,193.67c-.16-1.14-.6-2.01-1.32-2.63-.67-.57-1.47-.85-2.41-.85-1.15,0-2.1.43-2.84,1.28-.72.84-1.08,1.91-1.08,3.22,0,1.21.3,2.2.89,2.99.7.92,1.72,1.38,3.07,1.38,2.01,0,3.23-.98,3.66-2.93h-1.35c-.11.36-.25.65-.39.89-.39.59-.99.89-1.82.89-1.69,0-2.57-1-2.64-2.99h6.29c0-.48-.02-.89-.07-1.24ZM76.32,193.84c.08-.63.26-1.15.52-1.54.43-.64,1.07-.96,1.92-.96s1.54.36,1.99,1.07c.24.38.38.86.43,1.43h-4.86Z"/>
    <path class="cls-1" d="M89.99,194.73c-.47-.34-1.29-.64-2.45-.9-.53-.12-.97-.23-1.31-.34-.3-.09-.53-.22-.7-.39-.14-.15-.21-.35-.21-.6,0-.39.16-.68.48-.89.3-.19.71-.29,1.23-.29.83,0,1.41.22,1.74.67.15.2.25.48.3.86h1.39c-.05-.72-.25-1.27-.59-1.66-.58-.68-1.51-1.02-2.76-1.02-.81,0-1.49.15-2.02.46-.78.45-1.17,1.12-1.17,2.01,0,.97.52,1.63,1.57,1.99.19.07.78.22,1.78.46.37.09.7.18.99.27.32.1.59.24.79.41.21.17.32.42.32.73s-.11.57-.32.79c-.37.39-.94.59-1.73.59-.86,0-1.49-.23-1.87-.68-.2-.24-.32-.59-.38-1.06h-1.35c.03.79.26,1.42.7,1.89.62.67,1.58,1.01,2.89,1.01s2.24-.35,2.85-1.04c.42-.47.62-1.02.62-1.64,0-.71-.26-1.26-.79-1.64Z"/>
    <path class="cls-1" d="M104.21,196.81c-.07-.82-.12-1.32-.14-1.47-.05-.52-.19-.94-.41-1.26-.29-.44-.71-.72-1.27-.83.45-.15.82-.37,1.12-.66.57-.55.85-1.28.85-2.18,0-1.18-.47-2.05-1.4-2.63-.54-.34-1.3-.51-2.27-.51h-5.28v11.55h1.52v-5h3.04c.87,0,1.49.12,1.85.35.52.34.81,1.13.88,2.38.05,1.01.1,1.61.16,1.8.06.21.13.37.2.47h1.75l-.15-.16c-.21-.23-.36-.85-.45-1.83ZM101.37,192.46c-.37.08-.88.11-1.55.11h-2.88v-3.99h3.28c.39,0,.74.02,1.03.07.44.07.78.22,1.04.47.36.34.54.82.54,1.41,0,.51-.12.92-.35,1.24-.26.36-.63.58-1.11.68Z"/>
    <path class="cls-1" d="M114.11,193.67c-.16-1.14-.6-2.01-1.32-2.63-.67-.57-1.47-.85-2.41-.85-1.15,0-2.1.43-2.84,1.28-.72.84-1.08,1.91-1.08,3.22,0,1.21.3,2.2.89,2.99.7.92,1.72,1.38,3.07,1.38,2.01,0,3.23-.98,3.66-2.93h-1.35c-.11.36-.25.65-.39.89-.39.59-.99.89-1.82.89-1.69,0-2.57-1-2.64-2.99h6.29c0-.48-.02-.89-.07-1.24ZM107.89,193.84c.08-.63.26-1.15.52-1.54.43-.64,1.07-.96,1.92-.96s1.54.36,1.99,1.07c.24.38.38.86.43,1.43h-4.86Z"/>
    <path class="cls-1" d="M122.28,190.76c-.5-.39-1.14-.58-1.91-.58-.91,0-1.66.25-2.27.75-.21.17-.44.43-.7.79v-1.3h-1.28v8.38h1.38v-4.06c0-.63.03-1.1.08-1.43.09-.54.29-.97.61-1.29.45-.46,1.04-.69,1.76-.69.55,0,.99.14,1.32.41.25.21.41.51.48.9.04.24.07.64.07,1.23v4.93h1.38v-5.41c0-.5-.02-.86-.06-1.1-.1-.66-.38-1.17-.85-1.53Z"/>
    <path class="cls-1" d="M127.21,187.94h-1.38v2.48h-1.41v1.13h1.41v4.17c0,.9,0,1.46.02,1.7.03.38.1.66.22.85.27.44.85.66,1.74.66.35,0,.7-.02,1.05-.07v-1.19c-.25.07-.49.11-.73.11-.42,0-.69-.1-.8-.3-.08-.14-.12-.47-.12-1v-4.94h1.66v-1.13h-1.66v-2.48Z"/>
    <path class="cls-1" d="M140.95,196.57c-.62.8-1.5,1.2-2.66,1.2-1.36,0-2.38-.53-3.07-1.58-.55-.84-.83-1.89-.83-3.16,0-1.19.26-2.2.79-3.06.69-1.13,1.73-1.69,3.11-1.69,1.03,0,1.86.32,2.49.95.39.39.66.89.79,1.48h1.54c-.08-.83-.43-1.58-1.05-2.25-.91-.98-2.15-1.48-3.74-1.48s-2.93.54-3.9,1.61c-1.05,1.16-1.57,2.64-1.57,4.44,0,1.69.41,3.07,1.23,4.13.97,1.26,2.34,1.89,4.12,1.89,1.68,0,2.98-.56,3.88-1.67.64-.79,1.01-1.77,1.11-2.94h-1.52c-.1.89-.36,1.6-.75,2.11Z"/>
    <path class="cls-1" d="M151.4,197.26v-4.18c0-.55,0-.87-.02-.97-.08-.47-.25-.84-.52-1.1-.56-.55-1.43-.83-2.61-.83s-2.01.27-2.61.81c-.58.52-.88,1.2-.89,2.06h1.34c.05-.51.18-.88.38-1.11.34-.4.9-.6,1.68-.6,1.25,0,1.88.49,1.88,1.46,0,.26-.06.47-.17.63-.17.24-.6.4-1.29.48-.86.11-1.33.17-1.39.17-.48.08-.87.18-1.18.3-1.05.42-1.57,1.18-1.57,2.28,0,.77.27,1.37.8,1.81.46.38,1.09.57,1.88.57,1.24,0,2.25-.45,3.03-1.35,0,.33.08.6.22.79.22.3.54.45.98.45.32,0,.64-.06.97-.17v-1.07c-.13.06-.25.09-.37.09-.34,0-.51-.18-.51-.53ZM150.05,195.71c0,.31-.02.53-.06.68-.09.33-.32.64-.7.93-.52.39-1.13.59-1.81.59-.53,0-.93-.12-1.2-.36-.3-.26-.45-.6-.45-1,0-.52.23-.89.7-1.12.31-.15.87-.28,1.67-.37.56-.07.94-.12,1.15-.17.27-.06.5-.16.7-.3v1.11Z"/>
    <path class="cls-1" d="M155.26,192.17v-1.75h-1.28v8.38h1.38v-3.25c0-.65.02-1.16.07-1.52.09-.73.33-1.3.73-1.71.48-.49,1.08-.73,1.82-.73.09,0,.23,0,.43.02v-1.43c-.57,0-1.05.08-1.44.23-.72.28-1.29.87-1.7,1.76Z"/>
    <path class="cls-1" d="M165.17,194.73c-.47-.34-1.29-.64-2.45-.9-.53-.12-.97-.23-1.31-.34-.3-.09-.53-.22-.7-.39-.14-.15-.21-.35-.21-.6,0-.39.16-.68.48-.89.3-.19.71-.29,1.23-.29.83,0,1.41.22,1.74.67.15.2.25.48.3.86h1.39c-.05-.72-.25-1.27-.59-1.66-.58-.68-1.51-1.02-2.76-1.02-.81,0-1.49.15-2.02.46-.78.45-1.17,1.12-1.17,2.01,0,.97.52,1.63,1.57,1.99.19.07.78.22,1.78.46.37.09.7.18.99.27.32.1.59.24.79.41.21.17.32.42.32.73s-.11.57-.32.79c-.37.39-.94.59-1.73.59-.86,0-1.49-.23-1.87-.68-.2-.24-.32-.59-.38-1.06h-1.35c.03.79.26,1.42.7,1.89.62.67,1.58,1.01,2.89,1.01s2.24-.35,2.85-1.04c.42-.47.62-1.02.62-1.64,0-.71-.26-1.26-.79-1.64Z"/>
  </g>
</svg>